<svg id="Layer_1" data-name="Layer 1" xmlns="http://www.w3.org/2000/svg" viewBox="0 0 16 16"><defs><style>.cls-1{fill:#231f20;}</style></defs><title>busybusy_icon</title><g id="_Group_" data-name="&lt;Group&gt;"><path id="_Path_" data-name="&lt;Path&gt;" class="cls-1" d="M9.46468,15.89341l-5.04422-1.639a2.9677,2.9677,0,0,1-1.90322-3.73527L5.691.75134a1.08692,1.08692,0,1,1,2.06745.67175L4.58469,11.19092a.79139.79139,0,0,0,.50752.99607l5.04422,1.639L11.4027,9.92881,7.55528,8.67871A1.08692,1.08692,0,1,1,8.227,6.61126L12.2624,7.92243a1.97848,1.97848,0,0,1,1.26881,2.49018l-1.32733,4.08511A2.1763,2.1763,0,0,1,9.46468,15.89341Z"/></g></svg>