<svg version="1" xmlns="http://www.w3.org/2000/svg" width="1089" height="929" viewBox="0 0 10890 9290">
  <g fill="#7cc78d">
    <path d="M3670 9283c-146-13-272-60-373-137-53-40-2900-2658-3040-2795S51 6103 25 5960c-29-159-28-276 4-456 10-57 62-165 113-236 66-91 643-710 708-759 87-65 191-115 292-139 105-25 287-27 391-4 92 20 236 88 307 145 30 24 450 408 934 853 844 777 880 809 895 790 114-140 5235-5925 5280-5966 74-67 219-145 294-159 93-16 241-28 292-23 210 20 306 50 417 129 94 68 725 633 771 692 111 138 157 285 157 503s-48 373-155 504c-70 86-6297 7140-6369 7214-116 121-247 196-381 220-71 13-241 22-305 15z"/>
  </g>
</svg>
