<?xml version="1.0" encoding="utf-8"?>
<!-- Generator: Adobe Illustrator 16.0.4, SVG Export Plug-In . SVG Version: 6.00 Build 0)  -->
<!DOCTYPE svg PUBLIC "-//W3C//DTD SVG 1.1//EN" "http://www.w3.org/Graphics/SVG/1.1/DTD/svg11.dtd">
<svg version="1.1" id="Layer_1" xmlns="http://www.w3.org/2000/svg" xmlns:xlink="http://www.w3.org/1999/xlink" x="0px" y="0px"
	 width="2000px" height="1000px" viewBox="0 0 2000 1000" enable-background="new 0 0 2000 1000" xml:space="preserve">
<rect fill="#C6C6C6" width="18" height="2"/>
<rect y="4" fill="#C6C6C6" width="18" height="2"/>
<rect y="8" fill="#C6C6C6" width="18" height="2"/>
<g id="XMLID_2_">
	<g>
		<path fill="#3E3E3E" d="M31.824,7.86c-1.798-1.798-1.798-4.715-0.001-6.516c1.799-1.796,4.716-1.796,6.514,0.001
			c1.797,1.797,1.797,4.714,0,6.512C36.539,9.658,33.622,9.658,31.824,7.86z M37.424,2.26c-1.295-1.296-3.394-1.294-4.688,0
			c-1.296,1.295-1.296,3.395,0,4.689c1.294,1.294,3.393,1.295,4.688,0S38.719,3.554,37.424,2.26z"/>
	</g>
</g>
<rect x="39.866" y="7.67" transform="matrix(-0.7066 0.7076 -0.7076 -0.7066 76.9043 -11.2646)" fill="#3E3E3E" width="1.842" height="5.284"/>
<rect x="37.924" y="7.819" transform="matrix(-0.7073 0.7069 -0.7069 -0.7073 71.7925 -13.3545)" fill="#3E3E3E" width="1.474" height="0.736"/>
<g id="XMLID_1_">
	<g>
		<path fill="#D6D6D6" d="M31.824,39.758c-1.798-1.798-1.798-4.715-0.001-6.514c1.799-1.796,4.716-1.796,6.514,0.001
			c1.797,1.797,1.797,4.714,0,6.512C36.539,41.556,33.622,41.556,31.824,39.758z M37.424,34.158c-1.295-1.296-3.394-1.294-4.688,0
			c-1.296,1.295-1.296,3.393,0,4.688c1.294,1.294,3.393,1.295,4.688,0C38.719,37.552,38.719,35.452,37.424,34.158z"/>
	</g>
</g>
<rect x="39.87" y="39.567" transform="matrix(-0.707 0.7072 -0.7072 -0.707 99.4801 43.2006)" fill="#D6D6D6" width="1.842" height="5.283"/>
<rect x="37.922" y="39.714" transform="matrix(-0.7073 0.7069 -0.7069 -0.7073 94.3374 41.1012)" fill="#D6D6D6" width="1.474" height="0.736"/>
<path id="path3243" d="M68.786,0.001c-0.2,0.014-0.393,0.043-0.588,0.067h-0.013l-0.507,2.367c-0.781,0.179-1.517,0.479-2.178,0.889
	l-1.996-1.35c-0.566,0.439-1.082,0.953-1.533,1.507l1.299,2.02c-0.453,0.692-0.793,1.483-0.985,2.312v0.014L59.93,8.27
	c-0.046,0.378-0.065,0.77-0.065,1.16c0,0.32,0.009,0.635,0.041,0.946l2.354,0.49c0.185,0.903,0.536,1.747,1.026,2.49l-1.354,1.968
	c0.434,0.536,0.932,1.021,1.467,1.453l2.035-1.312c0.765,0.487,1.62,0.831,2.545,0.999l0.434,2.34
	c0.284,0.029,0.575,0.03,0.866,0.03c0.411,0,0.803-0.016,1.2-0.067l0.523-2.396c0.88-0.218,1.707-0.599,2.423-1.109l1.948,1.345
	c0.532-0.453,1.02-0.973,1.44-1.533l-1.336-2.069c0.416-0.717,0.703-1.508,0.849-2.354l2.341-0.433
	c0.021-0.264,0.026-0.517,0.026-0.787c0-0.467-0.054-0.926-0.121-1.374L76.188,7.54c-0.206-0.761-0.543-1.469-0.972-2.107
	l1.358-1.963c-0.468-0.572-1.001-1.1-1.588-1.547l-2.081,1.335c-0.643-0.38-1.333-0.67-2.082-0.836l-0.439-2.354
	C70.021,0.023,69.654,0,69.278,0c-0.104,0-0.207-0.003-0.309,0c-0.05,0.002-0.097-0.003-0.146,0C68.812,0.003,68.798,0,68.786,0.001
	z M69.095,5.792c0.062-0.004,0.12,0,0.185,0c1.959,0,3.561,1.6,3.561,3.561s-1.601,3.544-3.561,3.544
	c-1.961,0-3.546-1.584-3.546-3.544C65.731,7.453,67.218,5.887,69.095,5.792z"/>
<linearGradient id="path3243_2_" gradientUnits="userSpaceOnUse" x1="-4782.5859" y1="1385.166" x2="-4782.5859" y2="1404.001" gradientTransform="matrix(1 0 0 -1 4992 1404)">
	<stop  offset="0" style="stop-color:#737373"/>
	<stop  offset="1" style="stop-color:#C9C9C9"/>
</linearGradient>
<path id="path3243_1_" fill="url(#path3243_2_)" d="M208.924,0.001c-0.2,0.014-0.393,0.043-0.588,0.067h-0.013l-0.507,2.367
	c-0.781,0.179-1.517,0.479-2.178,0.889l-1.996-1.35c-0.566,0.439-1.082,0.953-1.533,1.507l1.299,2.02
	c-0.453,0.692-0.793,1.483-0.985,2.312v0.014l-2.355,0.443C200.021,8.648,200,9.04,200,9.43c0,0.32,0.009,0.635,0.041,0.946
	l2.354,0.49c0.184,0.903,0.536,1.747,1.026,2.49l-1.353,1.968c0.432,0.536,0.93,1.021,1.467,1.453l2.035-1.312
	c0.765,0.487,1.62,0.831,2.545,0.999l0.434,2.34c0.284,0.029,0.575,0.03,0.866,0.03c0.411,0,0.803-0.016,1.2-0.067l0.521-2.396
	c0.88-0.218,1.707-0.599,2.423-1.109l1.948,1.345c0.532-0.453,1.021-0.973,1.44-1.533l-1.336-2.069
	c0.416-0.717,0.703-1.508,0.849-2.354l2.341-0.433c0.021-0.264,0.026-0.517,0.026-0.787c0-0.467-0.054-0.926-0.121-1.374
	l-2.383-0.519c-0.206-0.761-0.543-1.469-0.972-2.107l1.358-1.963c-0.468-0.572-1.001-1.1-1.588-1.547l-2.081,1.335
	c-0.641-0.38-1.333-0.67-2.082-0.836l-0.439-2.354C210.159,0.023,209.792,0,209.416,0c-0.103,0-0.207-0.003-0.307,0
	c-0.05,0.002-0.097-0.003-0.147,0C208.95,0.003,208.936,0,208.924,0.001z M209.232,5.792c0.062-0.004,0.12,0,0.183,0
	c1.959,0,3.561,1.6,3.561,3.561s-1.601,3.544-3.561,3.544c-1.961,0-3.546-1.584-3.546-3.544
	C205.869,7.453,207.355,5.887,209.232,5.792z"/>
<g id="Layer_2">
	<rect x="96.728" fill="#777777" width="2.678" height="16"/>
	<rect x="90.067" y="6.66" fill="#777777" width="16" height="2.68"/>
</g>
<g id="Layer_2_1_">
	<rect x="96.728" y="32.303" fill="#D3D3D3" width="2.678" height="16"/>
	<rect x="90.067" y="38.963" fill="#D3D3D3" width="16" height="2.68"/>
</g>
<g>
	<g>
		<rect x="150" fill="#4F4F4F" width="2.929" height="2.539"/>
		<rect x="154.881" fill="#4F4F4F" width="2.93" height="2.539"/>
		<rect x="159.763" fill="#4F4F4F" width="2.929" height="2.539"/>
	</g>
	<g>
		<rect x="150" y="4.231" fill="#4F4F4F" width="2.929" height="2.538"/>
		<rect x="154.881" y="4.231" fill="#4F4F4F" width="2.93" height="2.538"/>
		<rect x="159.763" y="4.231" fill="#4F4F4F" width="2.929" height="2.538"/>
	</g>
	<g>
		<rect x="150" y="8.461" fill="#4F4F4F" width="2.929" height="2.539"/>
		<rect x="154.881" y="8.461" fill="#4F4F4F" width="2.93" height="2.539"/>
		<rect x="159.763" y="8.461" fill="#4F4F4F" width="2.929" height="2.539"/>
	</g>
</g>
<polygon fill="#4F4F4F" points="130.414,0 129.763,0 127.811,0 124.881,0 120,0 120,2.539 124.881,2.539 127.811,2.539 
	129.763,2.539 130.414,2.539 132.692,2.539 132.692,0 "/>
<polygon fill="#4F4F4F" points="130.455,4.231 129.763,4.231 127.811,4.231 124.881,4.231 120,4.231 120,6.769 124.881,6.769 
	127.811,6.769 129.763,6.769 130.455,6.769 132.692,6.769 132.692,4.231 "/>
<polygon fill="#4F4F4F" points="130.496,8.461 129.763,8.461 127.811,8.461 124.881,8.461 120,8.461 120,11 124.881,11 127.811,11 
	129.763,11 130.496,11 132.692,11 132.692,8.461 "/>
<g>
	
		<linearGradient id="SVGID_1_" gradientUnits="userSpaceOnUse" x1="-4129" y1="-194.6895" x2="-4129" y2="-208.9995" gradientTransform="matrix(1 0 0 1 4388 209)">
		<stop  offset="0" style="stop-color:#707070"/>
		<stop  offset="1" style="stop-color:#9E9E9E"/>
	</linearGradient>
	<path fill="url(#SVGID_1_)" d="M257.591,5.114c0.048,0.52-0.308,0.801-0.462,1.163c-0.049,0.117-0.126,0.282-0.188,0.46
		c-0.527,0.164-1.123,0.259-1.662,0.376c-0.268,0.061-0.646,0.102-0.785,0.218c-0.154,0.123-0.267,0.615-0.336,0.883
		c-0.253,0.965-0.457,1.97-0.652,2.956v1.088H250v-0.273c0.154-0.78,0.314-1.573,0.511-2.341c0.057-0.212,0.148-0.602,0.273-0.697
		c0.105-0.089,0.406-0.13,0.617-0.178c0.653-0.136,1.402-0.239,1.907-0.527c0.168-0.095,0.322-0.3,0.51-0.423
		c0.093-0.062,0.309-0.102,0.359-0.239c0.076-0.22-0.079-0.404-0.162-0.685c-0.043-0.124-0.05-0.28-0.091-0.375
		c-0.063-0.157-0.175-0.266-0.246-0.398c-0.084-0.143-0.189-0.252-0.232-0.409c-0.085-0.295-0.057-0.691-0.035-1.04
		c0.021-0.383,0.07-0.718,0.175-0.957c0.289-0.644,1.018-1.054,1.761-1.164h0.371c0.175,0.035,0.323,0.178,0.499,0.24
		c0.189,0.068,0.406,0.089,0.567,0.159c0.266,0.115,0.526,0.361,0.609,0.594c0.099,0.288,0,0.793,0.085,1.252
		C257.507,4.91,257.577,5.02,257.591,5.114z M261.293,0c0.157,0,0.314,0,0.471,0c0.216,0.041,0.403,0.223,0.627,0.302
		c0.236,0.085,0.514,0.104,0.719,0.194c0.331,0.146,0.658,0.459,0.763,0.756c0.125,0.357,0.002,1.002,0.111,1.573
		c0.029,0.148,0.122,0.288,0.136,0.411c0.066,0.66-0.385,1.011-0.586,1.467c-0.11,0.251-0.302,0.72-0.359,1.057
		c-0.038,0.229-0.018,0.444,0.066,0.627c0.094,0.192,0.309,0.245,0.473,0.389c0.232,0.204,0.395,0.504,0.627,0.626
		c0.297,0.155,0.731,0.249,1.122,0.389c0.658,0.236,1.563,0.438,1.816,1.015c0.077,0.17,0.061,0.356,0.115,0.538
		c0.05,0.174,0.167,0.322,0.223,0.496c0.228,0.697,0.201,3.524,0.382,4.363c0,0.037,0,0.072,0,0.109c-4.489,0-8.977,0-13.465,0
		c0-0.116,0-2.283,0-2.399c0.194-0.984,0.399-1.99,0.65-2.955c0.069-0.266,0.183-0.763,0.337-0.886
		c0.139-0.111,0.519-0.157,0.787-0.216c0.818-0.181,1.767-0.311,2.401-0.668c0.219-0.125,0.415-0.385,0.651-0.54
		c0.116-0.077,0.388-0.128,0.45-0.302c0.098-0.275-0.094-0.51-0.201-0.865c-0.048-0.153-0.061-0.347-0.112-0.473
		c-0.082-0.199-0.229-0.337-0.316-0.498c-0.103-0.188-0.237-0.327-0.291-0.517c-0.106-0.374-0.068-0.876-0.046-1.318
		c0.026-0.486,0.088-0.903,0.225-1.208C259.437,0.655,260.355,0.133,261.293,0z"/>
</g>
</svg>
