<svg id="Layer_1" data-name="Layer 1" xmlns="http://www.w3.org/2000/svg" viewBox="0 0 25 25"><defs><style>.cls-1{fill:#9aa6b2;}</style></defs><title>light_bulb</title><rect class="cls-1" x="1.99426" y="8.67079" width="1.00043" height="2.40745" transform="translate(-7.68654 9.59998) rotate(-74.27808)"/><rect class="cls-1" x="20.99432" y="8.51084" width="2.68097" height="0.99981" transform="matrix(0.9914, -0.13088, 0.13088, 0.9914, -0.98723, 3.00078)"/><rect class="cls-1" x="20.63344" y="14.47486" width="1.00037" height="2.2202" transform="translate(-0.99816 29.71667) rotate(-68.96611)"/><rect class="cls-1" x="2.14129" y="15.66879" width="2.26301" height="0.99933" transform="translate(-4.9803 1.88502) rotate(-18.57659)"/><rect class="cls-1" x="10.70114" y="1.74183" width="2.66674" height="0.99924" transform="translate(9.20766 14.15206) rotate(-87.19911)"/><rect class="cls-1" x="17.54699" y="3.86558" width="2.50727" height="0.99931" transform="translate(3.33872 15.91721) rotate(-49.83598)"/><rect class="cls-1" x="5.30145" y="3.04019" width="1.0003" height="2.43623" transform="translate(-1.38342 4.66716) rotate(-39.53503)"/><path class="cls-1" d="M18.09286,11.88042c0-2.89-2.61-5.16-5.91-5.23h-0.16a6.45565,6.45565,0,0,0-4.18,1.56,4.84191,4.84191,0,0,0-1.72,3.67c0,3.73,3.13,5.87,3.13,7.7v2.68a16.39073,16.39073,0,0,0,1.25,1.15,2.48248,2.48248,0,0,0,1.58.68h0.04a2.48424,2.48424,0,0,0,1.59-.68,16.39073,16.39073,0,0,0,1.25-1.15v-2.05h-0.01c0-.24,0-0.63.01-0.63C14.96285,17.75041,18.09286,15.61046,18.09286,11.88042Zm-5.73,11.43h-0.52a2.969,2.969,0,0,1-1.01-.63h2.54A2.969,2.969,0,0,1,12.36282,23.31041Zm1.67-1.24h-3.84v-0.57h3.84v0.57Zm0-1.15h-3.84v-0.56h3.84v0.56Zm0.19-6.75-1.07,5.50995H12.9128l0.85-5.56995a4.85363,4.85363,0,0,1-1.66-.94,4.73436,4.73436,0,0,1-1.65.94l0.86,5.56995h-0.25l-1.07-5.50995a1.315,1.315,0,0,1-1.49-1.12,0.76513,0.76513,0,0,1,.78-0.8,1.33327,1.33327,0,0,1,1.11,1.32,4.2476,4.2476,0,0,0,1.36-.71c-0.12-.12006-0.3-0.25-0.42-0.38a1.44612,1.44612,0,0,1-.22-1.48,1.14349,1.14349,0,0,1,1.99,0,1.44259,1.44259,0,0,1-.21,1.47c-0.13.14-.3,0.27-0.43,0.39a4.18172,4.18172,0,0,0,1.37.71,1.31374,1.31374,0,0,1,1.11-1.32,0.76278,0.76278,0,0,1,.77.8A1.315,1.315,0,0,1,14.22286,14.17046Zm0.72-1.45a0.949,0.949,0,0,0-.65.91c0.33-.02.96-0.11,0.96-0.58A0.30775,0.30775,0,0,0,14.94283,12.72044Zm-2.34-1.28a0.54282,0.54282,0,0,0-.99,0,0.69708,0.69708,0,0,0,.15.75c0.11,0.13.23,0.25,0.34,0.36a3.15374,3.15374,0,0,0,.36-0.37006A0.692,0.692,0,0,0,12.60281,11.44042Zm-3.31995,1.28a0.30838,0.30838,0,0,0-.32.33c0,0.47.63,0.56,0.96,0.58A0.9438,0.9438,0,0,0,9.28286,12.72044Z"/></svg>